PathFileType	4	(X/Y/Z)	./resultDataOpenSim/trcMotMarkerGrf/sub10/qtm-14-04.trc
DataRate	CameraRate	NumFrames	NumMarkers	Units	OrigDataRate	OrigDataStartFrame	OrigNumFrames
250.000000	250.000000	8	24	m	250.000000	246	490
Frame#	Time	L.Toe.Tip			R.Toe.Tip			L.Ankle.Lat			R.Ankle.Lat			L.Ankle.Med			R.Ankle.Med			L.Heel			R.Heel			L.Knee.Lat			R.Knee.Lat			L.Knee.Med			R.Knee.Med			L.Thigh.Upper			R.Thigh.Upper			L.ASIS			R.ASIS			V.Sacral			L.Acromium			R.Acromium			C7			L.Elbow			R.Elbow			L.Wrist.Lat			R.Wrist.Lat
		X1	Y1	Z1	X2	Y2	Z2	X3	Y3	Z3	X4	Y4	Z4	X5	Y5	Z5	X6	Y6	Z6	X7	Y7	Z7	X8	Y8	Z8	X9	Y9	Z9	X10	Y10	Z10	X11	Y11	Z11	X12	Y12	Z12	X13	Y13	Z13	X14	Y14	Z14	X15	Y15	Z15	X16	Y16	Z16	X17	Y17	Z17	X18	Y18	Z18	X19	Y19	Z19	X20	Y20	Z20	X21	Y21	Z21	X22	Y22	Z22	X23	Y23	Z23	X24	Y24	Z24

246	0.98	0.039178126	-0.03339581	-0.14167807	0.61436922	0.10717659	0.019055831	-0.082472965	0.014631883	-0.17392431	0.47049383	0.11430561	0.035974632	-0.062476744	0.038350994	-0.092101327	0.50097495	0.14216444	-0.044838956	-0.15417689	0.0094655577	-0.13002006	0.43168835	0.081997343	-0.017811093	0.15077842	0.31206204	-0.22088299	0.44802223	0.50439465	0.049507504	0.16520529	0.29563632	-0.10237103	0.46717007	0.52420359	-0.07674023	0.1107797	0.70605669	-0.28805734	0.13572797	0.72947027	0.099857986	0.16560193	0.80957499	-0.2310826	0.19181295	0.81723481	0.017060977	-0.016489221	0.83147206	-0.079558877	0.20571707	1.2993703	-0.24422648	0.14777218	1.3230364	0.02115778	0.11475122	1.3211018	-0.12641203	0.17345369	1.106614	-0.52687508	-0.040612096	1.1965356	0.27405443	0.37439269	1.1696871	-0.66821717	-0.021430921	1.338164	0.4841094
247	0.984	0.039235074	-0.033383118	-0.14170846	0.63371225	0.10777309	0.01460237	-0.082069583	0.015342213	-0.17404892	0.48841988	0.11249836	0.034183207	-0.061869639	0.038956462	-0.092287284	0.51730622	0.14155951	-0.046782445	-0.15372864	0.010551342	-0.1302066	0.4495269	0.079806462	-0.019247036	0.15251301	0.31169531	-0.22107289	0.45475897	0.50227715	0.048967294	0.16715263	0.29507561	-0.10263236	0.47348022	0.52235007	-0.077064181	0.11546054	0.70614119	-0.28789645	0.14358558	0.73018842	0.10020352	0.17070306	0.81026408	-0.2317468	0.1992603	0.81809121	0.017200063	-0.0097457831	0.83161866	-0.078762292	0.21219539	1.3003076	-0.24370512	0.1539008	1.3237036	0.020749896	0.12120375	1.3217257	-0.12608782	0.18240092	1.1114475	-0.52900325	-0.03611327	1.2010209	0.27415921	0.38397701	1.1787573	-0.66768931	-0.017893867	1.3468437	0.48147243
248	0.988	0.03929918	-0.033383363	-0.14175702	0.65088353	0.1088425	0.0105675	-0.08168427	0.016025133	-0.17419142	0.50583902	0.1107791	0.032278891	-0.061287922	0.03955625	-0.092484516	0.5332158	0.1410431	-0.04868535	-0.1532892	0.011616792	-0.13041038	0.46694919	0.077789234	-0.020769262	0.15420829	0.31141724	-0.22131173	0.46146467	0.50004343	0.048437885	0.16902176	0.29458821	-0.10291861	0.47979054	0.52030818	-0.077402718	0.12011426	0.70615147	-0.2877144	0.15140373	0.73108827	0.1005342	0.17590545	0.81096205	-0.23221323	0.20678306	0.81913439	0.017316704	-0.0032815296	0.83186965	-0.078277149	0.21865085	1.3013365	-0.24315467	0.16001818	1.3244172	0.020373495	0.12770176	1.3224042	-0.12588221	0.19130898	1.1162892	-0.53088028	-0.031577216	1.2054014	0.27414274	0.39350341	1.1876692	-0.66696184	-0.014180849	1.3552435	0.47871715
249	0.992	0.039357756	-0.033384429	-0.14181221	0.66725515	0.11014803	0.0068063283	-0.081348684	0.016685402	-0.17439607	0.52276289	0.10912945	0.03025176	-0.060730393	0.040141089	-0.09269096	0.54865665	0.14059501	-0.050558367	-0.15287008	0.012663412	-0.13063398	0.48390194	0.075925284	-0.022361195	0.15587231	0.3112739	-0.22147365	0.46814333	0.49770258	0.04793295	0.17083974	0.29418169	-0.10319627	0.48608462	0.51811026	-0.077747653	0.12470572	0.70614356	-0.28751588	0.1591752	0.73215059	0.10083342	0.18123864	0.81167353	-0.23256796	0.21440005	0.82034796	0.0173941	0.0031787451	0.83225105	-0.077862018	0.22509128	1.3024517	-0.24257167	0.16612332	1.3251757	0.020034681	0.13429534	1.3231579	-0.12589176	0.2001718	1.1211813	-0.53254577	-0.027017846	1.2096821	0.27400569	0.40294814	1.1963974	-0.66603556	-0.010313516	1.3633634	0.4758647
250	0.996	0.039410092	-0.03338205	-0.14186067	0.68336083	0.11154638	0.0032679112	-0.081068206	0.017325716	-0.17469646	0.53921721	0.1075613	0.028175126	-0.060196186	0.040706947	-0.092903951	0.56359188	0.14018508	-0.052391079	-0.15247004	0.013696859	-0.13087672	0.50033217	0.074190642	-0.023983167	0.15749693	0.31126294	-0.22154993	0.47479635	0.49526954	0.047461306	0.1726075	0.29385417	-0.10344668	0.49237404	0.51579174	-0.078091197	0.12921222	0.70621405	-0.28730524	0.16689537	0.73334503	0.10108122	0.18673256	0.8124126	-0.23285322	0.2221287	0.82170634	0.017416233	0.0097719348	0.83276943	-0.077337872	0.23152299	1.3036494	-0.24195712	0.17221716	1.325978	0.019731677	0.14092652	1.3239786	-0.12597187	0.20898199	1.1260952	-0.53406081	-0.022442451	1.2138666	0.27373915	0.41229027	1.2049321	-0.66491319	-0.0063616302	1.3712034	0.4729474
251	1	0.039468232	-0.033378462	-0.14188558	0.69913721	0.11290287	-5.8504536e-05	-0.080795311	0.017952601	-0.1750607	0.55516175	0.10610385	0.026185058	-0.059686517	0.041263069	-0.093115433	0.57800139	0.13977286	-0.054147688	-0.15207854	0.014721234	-0.13112385	0.51620909	0.07256646	-0.025583379	0.15905259	0.31134636	-0.22165163	0.48142807	0.49277234	0.047032136	0.17430353	0.2935939	-0.10367735	0.49869161	0.51338564	-0.078429562	0.13364795	0.70645547	-0.28709245	0.17457283	0.7346514	0.10126017	0.19241204	0.81318748	-0.23306728	0.22997881	0.82318171	0.017368668	0.016539437	0.83339859	-0.076622935	0.23794503	1.3049296	-0.24131863	0.1783157	1.3268268	0.01946705	0.14746051	1.3248469	-0.12581635	0.21773898	1.1309622	-0.53545452	-0.017852167	1.2179393	0.273347	0.42152332	1.2132656	-0.66360722	-0.0023618668	1.378758	0.46999436
252	1.004	0.039543732	-0.033378362	-0.14187594	0.71431647	0.11414909	-0.0031667565	-0.080466033	0.018585795	-0.17541173	0.5704915	0.10477537	0.024371989	-0.059198721	0.041821358	-0.093317053	0.59188118	0.13932514	-0.055790736	-0.15168548	0.015735912	-0.13135015	0.53152248	0.071033299	-0.027120707	0.16049198	0.31150009	-0.22182169	0.48804617	0.49024598	0.046653638	0.17591725	0.29339544	-0.1038876	0.50506252	0.51091938	-0.078765491	0.13805272	0.70691281	-0.28688356	0.1822285	0.73605084	0.10136044	0.19828584	0.81399245	-0.23319525	0.23794569	0.82474619	0.017237908	0.023451767	0.83410554	-0.075749679	0.2443523	1.3062921	-0.24066355	0.18443782	1.3277269	0.019254904	0.15383642	1.3257745	-0.12528343	0.22644216	1.1357636	-0.53669498	-0.013238586	1.221855	0.27285969	0.43065374	1.22139	-0.66213143	0.0017266211	1.3860154	0.46702053
253	1.008	0.03963102	-0.033383719	-0.14184316	0.72859536	0.11537417	-0.0060138666	-0.080068433	0.019243877	-0.17570377	0.58512403	0.10358503	0.022743722	-0.058722867	0.042386907	-0.093505958	0.60523489	0.13883319	-0.057315323	-0.15128867	0.016740451	-0.13153609	0.54626816	0.069561377	-0.028575683	0.1617368	0.31172506	-0.22199798	0.49466007	0.48772264	0.046322996	0.17745263	0.29326505	-0.10406605	0.5114944	0.50841446	-0.079111627	0.14246502	0.70758035	-0.28667002	0.18988586	0.73751608	0.10138246	0.20434305	0.81481333	-0.23323341	0.24601051	0.82637197	0.017010479	0.030457691	0.83487081	-0.074812568	0.25074351	1.3077334	-0.23999411	0.19058142	1.3286803	0.019108196	0.160135	1.3267946	-0.12454878	0.2350868	1.1405326	-0.53773134	-0.0085895197	1.2255811	0.27231486	0.43968424	1.2293026	-0.66049617	0.0059588101	1.392964	0.46403368
